<?xml version="1.0" encoding="utf-8"?>
<!-- Generator: Adobe Illustrator 23.1.1, SVG Export Plug-In . SVG Version: 6.00 Build 0)  -->
<svg version="1.1" id="Layer_1" xmlns="http://www.w3.org/2000/svg" xmlns:xlink="http://www.w3.org/1999/xlink" x="0px" y="0px"
	 viewBox="0 0 360 360" style="enable-background:new 0 0 360 360;" xml:space="preserve">
<style type="text/css">
	.st0{fill:#5E9090;}
	.st1{fill:#5E9090;}
</style>
<path class="st0" d="M142.04,213.03l38.53,27.3c0.28,0.2,0.66,0.2,0.93-0.01l57.86-42.27c0.29-0.21,0.4-0.59,0.28-0.92l-28.12-75.72
	c-0.22-0.59-1.01-0.71-1.39-0.2l-68.28,90.69C141.59,212.25,141.67,212.77,142.04,213.03z"/>
<path class="st1" d="M149.61,121.72l-28.58,75.69c-0.13,0.34-0.01,0.72,0.29,0.94l16.38,11.6c0.35,0.25,0.84,0.17,1.1-0.17
	l38.94-51.72c0.21-0.28,0.21-0.68,0-0.96l-26.73-35.57C150.62,121.01,149.83,121.13,149.61,121.72z"/>
</svg>

